<svg xmlns="http://www.w3.org/2000/svg" width="140" height="80" fill="none" viewBox="0 0 140 80">
  <path fill="#fff" fill-rule="evenodd" d="M44.437 63.108v1.65h3.977a3.446 3.446 0 0 1-.92 2.08 4.08 4.08 0 0 1-3.066 1.209c-2.415-.036-4.354-1.995-4.354-4.398 0-2.403 1.94-4.361 4.354-4.397a4.246 4.246 0 0 1 3.01 1.181l1.17-1.163a5.805 5.805 0 0 0-4.171-1.713 6.092 6.092 0 0 0-5.462 2.957 6.03 6.03 0 0 0 0 6.188 6.092 6.092 0 0 0 5.462 2.957 5.537 5.537 0 0 0 4.244-1.695 5.481 5.481 0 0 0 1.436-3.866 5.363 5.363 0 0 0-.092-1.035l-5.588.045Zm10.21-1.2c-2.16.006-3.907 1.751-3.903 3.9a3.901 3.901 0 0 0 3.915 3.887c2.16-.001 3.91-1.744 3.91-3.893a3.83 3.83 0 0 0-1.137-2.777 3.867 3.867 0 0 0-2.796-1.117h.01Zm4.676 3.906c-.007-2.148 1.735-3.896 3.894-3.906a3.868 3.868 0 0 1 2.795 1.117 3.83 3.83 0 0 1 1.136 2.777c0 2.148-1.748 3.89-3.907 3.893-2.158.004-3.911-1.733-3.918-3.88Zm1.585 1.013a2.377 2.377 0 0 0 2.309 1.34 2.27 2.27 0 0 0 1.606-.719 2.247 2.247 0 0 0 .603-1.646 2.364 2.364 0 0 0-1.509-2.194 2.383 2.383 0 0 0-2.605.591 2.355 2.355 0 0 0-.404 2.628Zm-8.576.007a2.377 2.377 0 0 0 2.314 1.332h-.01a2.27 2.27 0 0 0 1.607-.718 2.244 2.244 0 0 0 .604-1.646 2.364 2.364 0 0 0-1.511-2.195 2.383 2.383 0 0 0-2.606.596 2.355 2.355 0 0 0-.398 2.63Zm30.466-4.925a3.68 3.68 0 0 1 3.35 2.482l.193.412-5.237 2.153A1.99 1.99 0 0 0 83 68.138a2.24 2.24 0 0 0 1.924-1.08l1.335.915A3.9 3.9 0 0 1 83 69.697a3.84 3.84 0 0 1-2.774-1.125 3.801 3.801 0 0 1-1.111-2.768 3.654 3.654 0 0 1 .994-2.74 3.691 3.691 0 0 1 2.689-1.154Zm-1.99 3.783a2.128 2.128 0 0 1 .543-1.564 2.149 2.149 0 0 1 1.501-.708 1.523 1.523 0 0 1 1.455.824l-3.498 1.448Zm-2.53 3.775h-1.722V58.015h1.722v11.452Zm-4.539-6.688h-.064a2.768 2.768 0 0 0-2.062-.917 3.912 3.912 0 0 0-3.727 3.899 3.912 3.912 0 0 0 3.727 3.898 2.676 2.676 0 0 0 2.062-.917h.054v.56c0 1.493-.8 2.29-2.089 2.29a2.163 2.163 0 0 1-1.97-1.384l-1.5.623a3.729 3.729 0 0 0 3.47 2.3c2.016 0 3.682-1.181 3.682-4.059v-6.934h-1.583v.641Zm-1.973 5.387h.003-.01.007Zm1.551-.735c-.395.445-.955.71-1.55.735a2.378 2.378 0 0 1-2.172-2.364c0-1.23.944-2.255 2.174-2.364a2.21 2.21 0 0 1 1.545.744c.394.445.59 1.029.545 1.62a2.173 2.173 0 0 1-.542 1.629Zm20.895-9.416h-4.115v11.452h1.722v-4.343h2.403a3.586 3.586 0 0 0 3.31-1.701 3.549 3.549 0 0 0 0-3.707 3.585 3.585 0 0 0-3.31-1.701h-.01ZM91.81 63.51h2.402l.037.028a1.97 1.97 0 0 0 1.975-1.965 1.97 1.97 0 0 0-1.975-1.965H91.81v3.902Zm13.017-1.649a3.226 3.226 0 0 0-3.066 1.75l1.528.633a1.635 1.635 0 0 1 1.565-.844c.442-.051.886.076 1.232.354.347.277.566.682.61 1.122v.119a3.818 3.818 0 0 0-1.796-.44c-1.647 0-3.314.916-3.314 2.575.033.714.355 1.385.893 1.86a2.667 2.667 0 0 0 1.961.659 2.425 2.425 0 0 0 2.21-1.1h.055v.917h1.657V65.06c0-2.006-1.528-3.17-3.489-3.17l-.046-.028Zm-1.555 5.305c0 .688.782.97 1.344.97l.046.03a2.075 2.075 0 0 0 2.015-1.834 3.067 3.067 0 0 0-1.565-.384c-.865 0-1.84.301-1.84 1.218Zm11.129-5.03-1.97 4.965h-.055l-2.044-4.964h-1.841l3.065 6.944-1.749 3.857h1.795l4.714-10.801h-1.915Zm-13.753 7.33h-1.721V58.015h1.721v11.452Z" clip-rule="evenodd"></path>
  <path fill="#5BC9F4" d="M10.149 48.85a1.748 1.748 0 0 0-.367 1.242V68.95a1.74 1.74 0 0 0 .383 1.2l.058.06 10.303-10.56v-.25l-10.32-10.61-.057.06Z"></path>
  <path fill="url('#a')" d="m24.096 63.395-3.57-3.296v-.232l3.57-3.288.078.04 4.242 2.219c1.21.63 1.21 1.667 0 2.306l-4.226 2.218-.094.033Z"></path>
  <path fill="url('#b')" d="M23.45 63.015 19.988 59.5 9.774 69.873c.483.43 1.2.451 1.707.05l11.978-6.907"></path>
  <path fill="url('#c')" d="M23.459 55.985 11.48 49.078a1.322 1.322 0 0 0-1.707.05L19.997 59.5l3.462-3.515Z"></path>
  <path fill="#fff" fill-rule="evenodd" d="M39.712 53.184h-.614v2.176h.798v-1.5h4.563v1.499h.799v-2.176h-.693v-5.368h-4.037l.001 1.202c0 .805-.078 1.609-.233 2.4-.074.364-.16.699-.26 1.004a4.032 4.032 0 0 1-.324.762Zm4.019-4.69v4.69h-3.106a4.43 4.43 0 0 0 .268-.703 11.164 11.164 0 0 0 .443-3.116v-.872h2.395Zm4.398 5.46c-.362 0-.68-.057-.952-.173a1.947 1.947 0 0 1-1.11-1.207 2.78 2.78 0 0 1-.14-.898c0-.321.047-.621.14-.902.094-.279.234-.52.421-.728.188-.206.417-.368.689-.486.273-.119.59-.178.952-.178.357 0 .673.06.948.178.275.118.506.28.693.486.187.207.328.449.421.728.094.28.14.58.14.902 0 .322-.046.621-.14.898a1.937 1.937 0 0 1-1.114 1.207c-.3.12-.623.18-.948.173Zm.55-.736c-.174.073-.357.11-.55.11-.38 0-.744-.155-1-.428a1.465 1.465 0 0 1-.303-.516 2.115 2.115 0 0 1-.11-.707c0-.266.036-.5.11-.707.074-.207.174-.38.303-.521.124-.138.278-.248.451-.322a1.414 1.414 0 0 1 1.098 0c.173.074.327.184.452.322.135.152.238.33.303.52.073.207.109.442.109.708 0 .265-.036.5-.11.707a1.471 1.471 0 0 1-.302.516 1.3 1.3 0 0 1-.452.318Zm4.603.736c-.345 0-.65-.054-.916-.16a1.78 1.78 0 0 1-.667-.458 1.964 1.964 0 0 1-.405-.703 2.843 2.843 0 0 1-.135-.906c0-.327.044-.633.131-.918.088-.286.22-.533.4-.746.178-.212.4-.377.666-.498.267-.123.581-.183.944-.183.257 0 .498.03.723.09.226.059.424.15.597.274.174.124.315.28.426.47.111.189.181.413.21.673h-.772a1.088 1.088 0 0 0-.368-.643c-.187-.153-.439-.229-.755-.229-.269 0-.494.048-.675.144a1.19 1.19 0 0 0-.435.381 1.56 1.56 0 0 0-.232.546c-.048.21-.071.424-.07.64 0 .203.024.4.074.592.05.192.127.362.232.512.106.15.241.27.41.36.165.09.369.136.608.136.369 0 .657-.094.865-.28.208-.186.335-.449.382-.787h.763c-.082.547-.29.966-.623 1.258-.333.29-.793.435-1.378.435Zm2.503-3.835h1.623v3.742h.746v-3.742h1.624v-.635h-3.993v.635Zm5.25 5.486a2.06 2.06 0 0 1-.264-.017 1.279 1.279 0 0 1-.254-.06v-.66l.214.068a.757.757 0 0 0 .225.034c.13.006.26-.03.368-.102a.863.863 0 0 0 .246-.296l.307-.736-1.799-4.352h.842l1.325 3.581h.018l1.273-3.581h.79l-1.975 4.953a4.352 4.352 0 0 1-.26.541 1.486 1.486 0 0 1-.28.36.959.959 0 0 1-.342.203c-.14.045-.287.066-.434.064Zm7.82-6.121h-3.703v4.377h.746v-3.742h2.211v3.742h.746v-4.377Zm1.318 0h.746v1.744h2.3v-1.744h.745v4.377h-.746v-2.015H70.92v2.015h-.746v-4.377Zm6.114 4.297c.273.116.59.173.952.173.325.006.648-.053.948-.173a1.937 1.937 0 0 0 1.115-1.207c.093-.277.14-.576.14-.898a2.85 2.85 0 0 0-.14-.902 2.033 2.033 0 0 0-.422-.728 1.981 1.981 0 0 0-.693-.486 2.374 2.374 0 0 0-.948-.178c-.362 0-.68.06-.951.178-.273.118-.502.28-.69.486a2.033 2.033 0 0 0-.42.728c-.094.28-.141.58-.141.902a2.78 2.78 0 0 0 .14.898 1.947 1.947 0 0 0 1.11 1.207Zm.952-.453c.193 0 .376-.037.55-.11a1.3 1.3 0 0 0 .45-.319c.13-.138.23-.31.303-.515a2.09 2.09 0 0 0 .11-.707c0-.266-.036-.5-.11-.708a1.513 1.513 0 0 0-.302-.52 1.287 1.287 0 0 0-.452-.322 1.388 1.388 0 0 0-.549-.11c-.189 0-.376.037-.549.11a1.286 1.286 0 0 0-.451.322 1.48 1.48 0 0 0-.302.521 2.08 2.08 0 0 0-.11.707c0 .265.036.5.109.707.074.206.174.377.303.517.129.138.279.243.451.316.174.074.356.11.55.11Zm8.007-3.844H83.15v4.377h2.466c.189.002.376-.031.553-.097.17-.066.316-.154.438-.267.124-.114.222-.253.286-.407.067-.158.1-.33.1-.516 0-.293-.077-.533-.232-.72a1.048 1.048 0 0 0-.628-.355v-.009c.211-.096.375-.217.492-.364.117-.147.175-.338.175-.576 0-.22-.044-.4-.131-.541a.884.884 0 0 0-.351-.326 1.557 1.557 0 0 0-.496-.157 3.811 3.811 0 0 0-.575-.042Zm.228 3.767c.246 0 .431-.068.558-.207a.744.744 0 0 0 .188-.52.6.6 0 0 0-.202-.475c-.134-.118-.36-.178-.675-.178h-1.457v1.38h1.588Zm.364-2.142c-.125.113-.349.17-.67.17h-1.282v-1.186h1.281c.328 0 .553.05.676.148.126.105.194.26.184.42a.573.573 0 0 1-.189.448ZM19.761 11.393c1.322.098 2.68-.672 3.527-1.68.813-1.024 1.37-2.416 1.215-3.83-1.177.054-2.647.82-3.495 1.821-.75.882-1.42 2.328-1.247 3.689Zm9.685 12.022c-.038-.014-3.15-1.21-3.181-4.827-.027-2.995 2.417-4.464 2.565-4.553l.003-.002c-1.405-2.062-3.583-2.345-4.35-2.367-1.119-.118-2.218.32-3.116.68-.57.227-1.058.423-1.42.423-.412 0-.914-.204-1.478-.432-.737-.298-1.577-.639-2.453-.62-1.991.031-3.854 1.191-4.875 2.992-2.107 3.674-.536 9.073 1.484 12.043 1.01 1.454 2.19 3.077 3.735 3.02.7-.028 1.198-.239 1.712-.457.594-.251 1.21-.512 2.188-.512.922 0 1.512.253 2.078.495.543.233 1.064.456 1.834.438 1.623-.026 2.645-1.46 3.619-2.929 1.168-1.666 1.635-3.308 1.655-3.392Zm44.822 5.295c.633-.575.949-1.32.949-2.234 0-.743-.217-1.365-.65-1.863-.433-.5-1.108-.936-2.027-1.307-.75-.3-1.269-.576-1.553-.83a1.316 1.316 0 0 1-.49-1.053c0-.384.143-.707.427-.974.338-.297.808-.447 1.41-.447.761 0 1.442.166 2.044.495l.426-1.404c-.644-.34-1.45-.51-2.423-.51-1.09 0-1.96.282-2.614.846-.655.564-.983 1.288-.983 2.172 0 1.353.934 2.382 2.804 3.083.687.256 1.178.533 1.473.832.296.298.443.665.443 1.102 0 .49-.178.882-.537 1.174-.36.293-.861.44-1.505.44a4.666 4.666 0 0 1-2.474-.687l-.396 1.436c.696.447 1.618.67 2.767.67 1.244 0 2.213-.314 2.909-.942Zm-26.65.781h-1.822l-1-3.157h-3.469l-.95 3.157h-1.775L42.04 18.74h2.123l3.455 10.752Zm-3.121-4.483-.903-2.807c-.096-.287-.275-.962-.539-2.026h-.032a76.73 76.73 0 0 1-.507 2.026l-.887 2.807h2.868Zm10.9 3.637c.707-.764 1.061-1.806 1.061-3.125 0-1.18-.304-2.133-.912-2.856-.606-.723-1.365-1.084-2.273-1.084-1.162 0-2.027.462-2.598 1.388h-.032l-.096-1.229h-1.504c.041.872.064 1.722.064 2.552v8.36h1.71v-4.085h.032c.444.734 1.173 1.1 2.187 1.1.94 0 1.726-.34 2.36-1.02Zm-.681-3.063c0-.754-.17-1.377-.508-1.865-.37-.51-.867-.767-1.489-.767-.423 0-.805.143-1.148.423a1.96 1.96 0 0 0-.674 1.11 2.275 2.275 0 0 0-.08.524V26.3c0 .564.172 1.04.516 1.428.343.39.79.582 1.339.582.644 0 1.144-.25 1.503-.749.36-.5.54-1.159.54-1.979Zm9.536 3.063c.709-.764 1.062-1.806 1.062-3.125 0-1.18-.304-2.133-.91-2.856-.608-.723-1.366-1.084-2.274-1.084-1.162 0-2.028.462-2.598 1.388H59.5l-.096-1.229H57.9c.042.872.064 1.722.064 2.552v8.36h1.71v-4.085h.032c.443.734 1.172 1.1 2.186 1.1.94 0 1.727-.34 2.36-1.02Zm-.68-3.063c0-.754-.17-1.377-.509-1.865-.37-.51-.864-.767-1.488-.767-.423 0-.805.143-1.15.423a1.964 1.964 0 0 0-.672 1.11 2.315 2.315 0 0 0-.08.524V26.3c0 .564.173 1.04.515 1.428.343.388.79.582 1.34.582.644 0 1.145-.25 1.504-.749.36-.5.54-1.159.54-1.979Zm17.3-2.55h-1.885v3.764c0 .957.332 1.436.999 1.436.305 0 .558-.028.76-.08l.047 1.307c-.338.127-.781.19-1.331.19-.675 0-1.203-.206-1.584-.622-.38-.415-.572-1.111-.572-2.09V23.03h-1.123v-1.294h1.123v-1.419l1.68-.51v1.93h1.886v1.293Zm7.494 5.454c.675-.764 1.015-1.743 1.015-2.935 0-1.16-.328-2.106-.984-2.838-.687-.755-1.595-1.133-2.725-1.133-1.172 0-2.105.383-2.795 1.15-.693.764-1.038 1.748-1.038 2.95 0 1.148.335 2.1 1.006 2.855.67.754 1.57 1.131 2.7 1.131 1.172 0 2.113-.392 2.821-1.18Zm-.76-2.88c0-.714-.152-1.327-.46-1.838-.358-.62-.87-.928-1.535-.928-.689 0-1.21.31-1.568.928-.308.512-.46 1.135-.46 1.871 0 .715.152 1.329.46 1.84.368.618.886.927 1.553.927.653 0 1.166-.315 1.535-.944.316-.52.475-1.141.475-1.855Zm7.335-2.353Zm0 0a2.954 2.954 0 0 0-.539-.047c-.601 0-1.067.229-1.395.687-.284.403-.427.914-.427 1.53v4.068h-1.71l.016-5.311c0-.894-.022-1.707-.064-2.441h1.49l.063 1.484h.047c.18-.51.466-.92.855-1.228a2.06 2.06 0 0 1 1.237-.415c.158 0 .3.01.427.031v1.642Zm7.652 1.995c0 .31-.02.569-.063.782h-5.132c.02.766.268 1.35.744 1.755.433.361.992.542 1.678.542.761 0 1.454-.122 2.078-.366l.268 1.195c-.729.32-1.589.479-2.581.479-1.195 0-2.132-.354-2.814-1.06-.68-.708-1.021-1.657-1.021-2.848 0-1.17.317-2.142.95-2.918.666-.83 1.563-1.244 2.693-1.244 1.11 0 1.95.414 2.521 1.244.452.658.679 1.473.679 2.44Zm-1.964-1.77c.232.372.344.813.332 1.323h-3.563c.052-.52.221-.968.506-1.34.348-.468.803-.702 1.361-.702.613 0 1.068.24 1.364.719Zm-58.487-8.663a3.81 3.81 0 0 1-1.03-.132 2.296 2.296 0 0 1-.817-.404 1.859 1.859 0 0 1-.536-.686c-.128-.275-.192-.604-.192-.985h.794c.006.282.06.52.161.716.103.198.236.355.403.475a1.6 1.6 0 0 0 .58.26c.221.053.457.079.707.079.215 0 .416-.03.602-.093.177-.056.342-.146.486-.264.283-.233.445-.584.44-.953 0-.228-.044-.414-.131-.557a.923.923 0 0 0-.344-.335 1.49 1.49 0 0 0-.499-.163 3.9 3.9 0 0 0-.598-.044 11.193 11.193 0 0 0-.558.018v-.686c.07.012.163.018.28.018h.278c.198 0 .38-.02.547-.058.164-.038.307-.1.426-.188a.886.886 0 0 0 .28-.348c.068-.144.1-.32.1-.531a.973.973 0 0 0-.108-.484.869.869 0 0 0-.297-.312 1.325 1.325 0 0 0-.428-.171 2.334 2.334 0 0 0-.502-.053c-.46 0-.82.1-1.083.303-.262.203-.416.532-.462.99h-.795a2.09 2.09 0 0 1 .206-.876c.125-.249.292-.453.501-.615.21-.161.456-.283.738-.365.283-.082.59-.123.921-.123.297 0 .574.034.834.1.26.07.485.173.676.313.193.141.344.318.454.533.111.214.166.467.166.76 0 .17-.029.328-.087.474a1.508 1.508 0 0 1-.23.396c-.187.228-.434.4-.713.492v.027c.191.036.375.105.541.206.3.179.523.462.63.796.052.164.078.33.078.5a1.882 1.882 0 0 1-.555 1.275c-.216.213-.47.382-.75.497-.307.132-.677.198-1.114.198Zm4.813-.044a2.426 2.426 0 0 1-.576-.066 1.293 1.293 0 0 1-.476-.22 1.073 1.073 0 0 1-.324-.395 1.324 1.324 0 0 1-.117-.585c0-.258.044-.469.13-.633.088-.164.203-.297.345-.4a1.58 1.58 0 0 1 .49-.233 8.016 8.016 0 0 1 1.143-.224c.184-.02.345-.05.485-.088a.805.805 0 0 0 .332-.166c.081-.074.122-.18.122-.321a.75.75 0 0 0-.092-.396.63.63 0 0 0-.235-.229.955.955 0 0 0-.324-.105 2.413 2.413 0 0 0-.353-.027c-.314 0-.576.06-.786.18-.21.121-.323.348-.34.682h-.742c.011-.281.07-.519.174-.712.105-.194.245-.35.42-.47.174-.121.373-.207.598-.26a3.11 3.11 0 0 1 .72-.079c.203 0 .405.015.607.044.2.03.382.089.545.18.163.092.294.219.393.383.099.164.148.378.148.641v2.339c0 .176.01.304.031.386.02.083.089.124.205.124a.87.87 0 0 0 .227-.044v.58c-.128.076-.305.114-.532.114a.635.635 0 0 1-.458-.163c-.115-.107-.171-.285-.171-.531a1.777 1.777 0 0 1-.712.531c-.27.11-.563.163-.877.163Zm.794-.752a1.727 1.727 0 0 1-.628.101 1.52 1.52 0 0 1-.332-.035.802.802 0 0 1-.275-.114.621.621 0 0 1-.192-.206.606.606 0 0 1-.074-.313c0-.187.041-.335.126-.444.086-.11.2-.196.328-.25.145-.062.297-.103.454-.123l.502-.07a9.62 9.62 0 0 0 .476-.08.814.814 0 0 0 .366-.158v.765a.851.851 0 0 1-.078.338 1.015 1.015 0 0 1-.245.335 1.33 1.33 0 0 1-.428.254Zm2.857-3.89h3.091v.66h-2.349v3.885h-.742V10.13Zm4.647 0h-.742v6.277h.742v-2.338h.018a1.2 1.2 0 0 0 .3.339c.117.089.245.161.38.215.248.096.512.147.778.15.31.006.62-.057.903-.186.25-.116.472-.29.646-.505.176-.222.307-.476.385-.748.084-.283.126-.59.126-.918a3.17 3.17 0 0 0-.13-.914 2.295 2.295 0 0 0-.39-.76 1.83 1.83 0 0 0-.646-.523 2.02 2.02 0 0 0-.912-.194c-.314 0-.602.057-.864.171a1.12 1.12 0 0 0-.576.55h-.018v-.615Zm1.397 3.992c.25 0 .463-.05.637-.15.175-.1.315-.231.42-.395a1.73 1.73 0 0 0 .227-.563c.046-.214.07-.432.07-.65 0-.21-.029-.418-.084-.62a1.68 1.68 0 0 0-.252-.54 1.243 1.243 0 0 0-1.062-.52c-.25 0-.462.05-.637.15-.175.1-.317.23-.428.39a1.642 1.642 0 0 0-.24.55c-.1.418-.1.854.005 1.27.052.21.135.392.248.55.114.158.26.285.441.382.18.098.399.146.655.146Zm3.407 2.347c.087.011.175.017.262.017a1.3 1.3 0 0 0 .432-.066.947.947 0 0 0 .341-.211c.111-.11.205-.235.279-.373.085-.153.17-.34.258-.563l1.964-5.142h-.786l-1.266 3.718h-.017l-1.319-3.718h-.838l1.79 4.518-.305.765a.89.89 0 0 1-.245.307.593.593 0 0 1-.367.106.723.723 0 0 1-.223-.035l-.213-.07v.685c.082.03.167.05.253.062Zm6.017-1.697c-.599 0-1.068-.135-1.405-.404-.338-.27-.521-.654-.55-1.152h.75c.024.334.146.575.367.721.221.146.498.22.83.22.355 0 .628-.076.82-.229a.71.71 0 0 0 .289-.58c0-.229-.073-.407-.219-.536-.145-.13-.393-.194-.742-.194h-.602v-.606h.48c.262 0 .486-.054.672-.162.187-.11.28-.298.28-.568 0-.17-.08-.32-.241-.448-.16-.129-.397-.194-.711-.194-.134 0-.266.015-.398.045-.13.029-.248.076-.353.14a.838.838 0 0 0-.262.255.87.87 0 0 0-.13.387h-.752c.018-.281.085-.514.201-.7.117-.184.262-.33.437-.439a1.84 1.84 0 0 1 .593-.232c.222-.047.446-.07.673-.07.233 0 .45.023.654.07.204.046.383.12.537.224.155.103.276.23.368.382.09.152.135.334.135.545 0 .264-.074.478-.224.642a.95.95 0 0 1-.501.307v.018a1.1 1.1 0 0 1 .314.106c.106.053.2.126.28.214.081.092.148.203.2.334.053.133.079.287.079.462.01.44-.208.854-.576 1.09a1.945 1.945 0 0 1-.598.264 2.742 2.742 0 0 1-.695.088Zm3.696-4.641h-.742v4.544h.951l2.13-3.71v3.71h.743V10.13H71.9l-2.13 3.71v-3.71Zm5.484.659H73.64v-.66h3.973v.66h-1.615v3.885h-.743V10.79Zm4.119 3.806c.271.117.587.176.947.176.513 0 .938-.128 1.275-.382.338-.256.556-.64.655-1.156h-.734c-.064.298-.196.521-.397.668-.2.146-.458.22-.772.22-.245 0-.457-.042-.638-.124a1.238 1.238 0 0 1-.698-.804 1.81 1.81 0 0 1-.07-.567h3.379a3.644 3.644 0 0 0-.074-.87 2.51 2.51 0 0 0-.333-.844 1.985 1.985 0 0 0-.637-.638c-.265-.167-.598-.25-1-.25a1.994 1.994 0 0 0-1.522.668c-.19.211-.337.461-.442.752-.105.29-.157.605-.157.945 0 .345.045.665.136.958.082.277.22.535.405.756.185.214.417.383.677.492Zm2.16-2.628a1.537 1.537 0 0 0-.117-.501 1.266 1.266 0 0 0-1.183-.782c-.192 0-.365.033-.519.101a1.2 1.2 0 0 0-.398.276 1.35 1.35 0 0 0-.262.409 1.563 1.563 0 0 0-.113.497h2.593Zm6.457-1.837h-2.087v4.544h2.454a1.47 1.47 0 0 0 .55-.1 1.36 1.36 0 0 0 .436-.278c.123-.118.22-.262.283-.422.068-.164.101-.342.101-.536 0-.304-.076-.554-.23-.747a1.034 1.034 0 0 0-.625-.37v-.008c.21-.1.372-.226.489-.378.116-.152.174-.352.174-.598 0-.228-.043-.416-.13-.562a.894.894 0 0 0-.35-.338 1.505 1.505 0 0 0-.493-.163 3.637 3.637 0 0 0-.572-.044Zm.227 3.911c.244 0 .429-.071.555-.215a.793.793 0 0 0 .187-.54.637.637 0 0 0-.2-.493c-.135-.123-.359-.185-.673-.185h-1.45v1.433h1.58Zm.362-2.224c-.124.117-.347.176-.668.176h-1.274v-1.23h1.274c.326 0 .55.05.673.153.125.108.192.27.183.435a.608.608 0 0 1-.188.466Z" clip-rule="evenodd"></path>
  <defs>
    <linearGradient id="a" x1="27.63" x2="6.735" y1="51.892" y2="51.892" gradientUnits="userSpaceOnUse">
      <stop stop-color="#FEE000"></stop>
      <stop offset=".42" stop-color="#FBBC0E"></stop>
      <stop offset=".78" stop-color="#FAA418"></stop>
      <stop offset="1" stop-color="#F99B1C"></stop>
    </linearGradient>
    <linearGradient id="b" x1="7.373" x2=".317" y1="57.189" y2="77.433" gradientUnits="userSpaceOnUse">
      <stop stop-color="#EF4547"></stop>
      <stop offset="1" stop-color="#C6186D"></stop>
    </linearGradient>
    <linearGradient id="c" x1="-1.231" x2="4.536" y1="42.011" y2="58.536" gradientUnits="userSpaceOnUse">
      <stop stop-color="#279E6F"></stop>
      <stop offset=".04" stop-color="#2BA06F"></stop>
      <stop offset=".46" stop-color="#53B26C"></stop>
      <stop offset=".8" stop-color="#6BBD6A"></stop>
      <stop offset="1" stop-color="#74C169"></stop>
    </linearGradient>
  </defs>
</svg>
